HIERARCHY
ROOT Hips
{
	OFFSET 0.000000 0.000000 0.000000
	CHANNELS 6 Xposition Yposition Zposition Zrotation Yrotation Xrotation 
	JOINT LHipJoint
	{
		OFFSET 0.000000 0.000000 0.000000
		CHANNELS 3 Zrotation Yrotation Xrotation
		JOINT LeftUpLeg
		{
			OFFSET 1.363060 -1.794630 0.839290
			CHANNELS 3 Zrotation Yrotation Xrotation
			JOINT LeftLeg
			{
				OFFSET 2.448110 -6.726130 0.000000
				CHANNELS 3 Zrotation Yrotation Xrotation
				JOINT LeftFoot
				{
					OFFSET 2.562200 -7.039590 0.000000
					CHANNELS 3 Zrotation Yrotation Xrotation
					JOINT LeftToeBase
					{
						OFFSET 0.157640 -0.433110 2.322550
						CHANNELS 3 Zrotation Yrotation Xrotation
						End Site
						{
							OFFSET 0.000000 0.000000 0.000000
						}
					}
				}
			}
		}
	}
	JOINT RHipJoint
	{
		OFFSET 0.000000 0.000000 0.000000
		CHANNELS 3 Zrotation Yrotation Xrotation
		JOINT RightUpLeg
		{
			OFFSET -1.305520 -1.794630 0.839290
			CHANNELS 3 Zrotation Yrotation Xrotation
			JOINT RightLeg
			{
				OFFSET -2.542530 -6.985550 0.000000
				CHANNELS 3 Zrotation Yrotation Xrotation
				JOINT RightFoot
				{
					OFFSET -2.568260 -7.056230 0.000000
					CHANNELS 3 Zrotation Yrotation Xrotation
					JOINT RightToeBase
					{
						OFFSET -0.164730 -0.452590 2.363150
						CHANNELS 3 Zrotation Yrotation Xrotation
						End Site
						{
							OFFSET 0.000000 0.000000 0.000000
						}
					}
				}
			}
		}
	}
}
MOTION
Frames: 19
Frame Time: 0.008333
-7.950782 16.197812 -0.364054 -141.761284 86.908971 -122.667811 -12.373907 3.149891 -1.602767 -4.832313 -1.236245 5.406876 -0.619020 2.036109 26.428215 0.758535 3.308024 5.576685 0.610700 0.000001 -79.809900 7.438322 1.130975 1.853797 0.272261 6.577276 -48.524550 2.222414 -1.465081 20.702588 1.133873 7.131233 11.521237 1.919100 -0.000000 -62.586100
-7.707065 16.206427 -0.383797 -139.271671 86.453082 -120.233202 -12.798340 3.120942 -1.659677 -4.001369 -0.581256 3.839555 -0.325655 2.242798 29.862733 0.964962 4.443187 7.409678 0.899200 0.000000 -77.158100 7.225378 0.974074 1.681100 1.115470 6.583041 -48.499823 2.162247 -1.647479 22.799631 1.072875 6.768238 11.216914 1.765300 -0.000000 -61.364401
-7.468020 16.222696 -0.401680 -138.582170 85.950510 -119.579161 -13.163259 3.060386 -1.720578 -3.244775 0.115471 2.078629 -0.060777 2.422296 33.401114 1.208467 5.873760 8.984567 1.306200 0.000001 -72.822100 7.066722 0.847363 1.514634 1.900637 6.451884 -48.329460 2.125312 -1.785692 24.584351 1.005637 6.344328 10.508303 1.555101 -0.000000 -60.499500
-7.233761 16.246668 -0.417265 -139.252505 85.409698 -120.261561 -13.466756 2.974649 -1.782627 -2.575496 0.829285 0.140176 0.162809 2.583493 36.988432 1.474817 7.557626 10.168959 1.821700 0.000000 -67.026499 6.958605 0.749558 1.357789 2.604794 6.206991 -48.004413 2.111964 -1.879881 26.035761 0.932308 5.874543 9.467567 1.309900 -0.000000 -60.029300
-7.004265 16.278230 -0.430183 -140.982229 84.828331 -121.978400 -13.703312 2.871195 -1.842990 -2.012796 1.527439 -1.949399 0.341552 2.736490 40.558348 1.749052 9.427015 10.881155 2.409100 0.000000 -60.338000 6.900557 0.678741 1.213174 3.205232 5.866679 -47.517906 2.119496 -1.931695 27.141331 0.851998 5.375367 8.189693 1.053400 0.000000 -59.908800
-6.779227 16.317133 -0.440367 -143.530188 84.192975 -124.483397 -13.872065 2.756234 -1.895879 -1.568810 2.172813 -4.171061 0.480965 2.888668 44.045578 2.018034 11.388066 11.108401 3.010700 -0.000000 -53.530300 6.889594 0.630267 1.084090 3.688491 5.450168 -46.870424 2.143919 -1.942887 27.889877 0.763035 4.851878 6.785372 0.803699 0.000000 -60.043000
-6.558317 16.363013 -0.447890 -146.690252 83.488852 -127.567587 -13.972109 2.634144 -1.935002 -1.262672 2.725380 -6.500552 0.591656 3.042166 47.389726 2.272264 13.341376 10.901847 3.565800 0.000000 -47.370100 6.924322 0.599490 0.972531 4.041815 4.971589 -46.067805 2.179037 -1.916719 28.280840 0.664044 4.303775 5.366806 0.573500 -0.000001 -60.311700
-6.341308 16.415353 -0.452925 -150.284836 82.705881 -131.056600 -14.002969 2.507186 -1.957732 -1.120660 3.154229 -8.905855 0.684383 3.194186 50.540425 2.504385 15.190779 10.335884 4.021100 -0.000000 -42.284800 7.004939 0.582778 0.876864 4.251591 4.437226 -45.116233 2.216993 -1.858288 28.327090 0.554858 3.729729 4.035461 0.370000 -0.000000 -60.604800
-6.127664 16.473500 -0.456253 -154.096640 81.829795 -134.729699 -13.976744 2.374048 -1.959826 -1.144747 3.445170 -11.374232 0.767910 3.338688 53.466441 2.707323 16.840276 9.481612 4.332200 0.000001 -38.349000 7.121606 0.571109 0.798473 4.325732 3.861999 -44.031883 2.251926 -1.771664 28.040874 0.435215 3.112680 2.878580 0.191000 -0.000000 -60.834800
-5.916997 16.536693 -0.458661 -157.941696 80.861431 -138.406552 -13.905428 2.233775 -1.940585 -1.340906 3.596174 -13.881064 0.846508 3.468750 56.133372 2.875977 18.218884 8.414635 4.477600 -0.000000 -35.434000 7.265207 0.558550 0.735158 4.273309 3.254992 -42.828564 2.278073 -1.661476 27.446763 0.306188 2.442313 1.956149 0.031300 -0.000000 -60.949500
-5.708967 16.604090 -0.461129 -161.655105 79.811289 -141.928687 -13.802408 2.085414 -1.901643 -1.705863 3.616081 -16.396474 0.920446 3.578606 58.507290 3.007150 19.281238 7.216783 4.460500 -0.000000 -33.363600 7.424941 0.540644 0.682223 4.113461 2.624775 -41.517754 2.291983 -1.531948 26.574881 0.169666 1.714294 1.297985 -0.116900 -0.000000 -60.930899
-5.503305 16.674786 -0.464657 -165.114003 78.701076 -145.181130 -13.679293 1.929379 -1.846373 -2.228651 3.520975 -18.887098 0.986811 3.664966 60.556564 3.099292 20.007248 5.971354 4.305800 -0.000000 -31.966300 7.590913 0.515567 0.633216 3.870564 1.978105 -40.110219 2.292686 -1.386830 25.459208 0.028607 0.935203 0.905447 -0.261800 0.000000 -60.788800
-5.299977 16.747888 -0.470077 -168.240632 77.560702 -148.101550 -13.543953 1.767608 -1.780731 -2.891431 3.333796 -21.309973 1.041369 3.726874 62.251017 3.153165 20.404981 4.768618 4.057800 -0.000000 -31.161700 7.755769 0.483608 0.579438 3.571537 1.318873 -38.607074 2.281627 -1.229542 24.134045 -0.112779 0.124530 0.755502 -0.409199 0.000000 -60.552700
-5.098544 16.822471 -0.478023 -171.013423 76.419526 -150.675134 -13.400563 1.603436 -1.706916 -3.673821 3.073551 -23.638270 1.080310 3.764445 63.573873 3.171638 20.505443 3.684405 3.765600 0.000000 -30.868700 7.915242 0.445747 0.516468 3.240497 0.647225 -37.021751 2.262340 -1.063071 22.633977 -0.249014 -0.687223 0.808877 -0.561801 0.000000 -60.272901
-4.899157 16.897595 -0.488989 -173.413298 75.307171 -152.899791 -13.252498 1.438133 -1.635143 -4.543502 2.774049 -25.835072 1.100767 3.780533 64.519018 3.159115 20.354735 2.770198 3.471299 0.000000 -30.998900 8.065083 0.402573 0.435563 2.904342 -0.033998 -35.349174 2.239926 -0.890659 20.989183 -0.373925 -1.463032 1.018477 -0.717600 -0.000000 -59.992100
-4.701339 16.972315 -0.502936 -175.479819 74.246587 -154.820173 -13.099228 1.275105 -1.567496 -5.480430 2.456819 -27.888578 1.101598 3.776700 65.094782 3.122862 20.018292 2.051563 3.206700 -0.000000 -31.419900 8.205851 0.354831 0.336638 2.575307 -0.728249 -33.603868 2.218900 -0.715161 19.229944 -0.480427 -2.160302 1.339711 -0.870100 -0.000000 -59.775100
-4.504951 17.045602 -0.519820 -177.232117 73.255276 -156.462416 -12.942183 1.114929 -1.510730 -6.455614 2.153017 -29.792071 1.082732 3.756593 65.323747 3.070830 19.563127 1.521023 2.986600 0.000000 -32.000800 8.336086 0.301859 0.218544 2.268599 -1.430848 -31.793328 2.203644 -0.539397 17.383337 -0.562476 -2.742497 1.735231 -1.010601 -0.000000 -59.660300
-4.309523 17.116453 -0.539237 -178.715131 72.344429 -157.871972 -12.780606 0.959665 -1.466954 -7.452620 1.885723 -31.553369 1.044784 3.722985 65.236968 3.011498 19.055998 1.142533 2.811900 0.000001 -32.565200 8.457570 0.242964 0.085628 1.987334 -2.138958 -29.935034 2.196438 -0.366158 15.477598 -0.615005 -3.178166 2.180811 -1.129400 0.000000 -59.688400
-4.114640 17.183795 -0.560730 -179.968932 71.520384 -159.083752 -12.614206 0.810255 -1.438966 -8.458741 1.675556 -33.190023 0.988297 3.679397 64.871757 2.952115 18.550943 0.858939 2.673500 -0.000001 -32.959700 8.571790 0.177872 -0.057682 1.731305 -2.846241 -28.051911 2.198131 -0.198600 13.543775 -0.635159 -3.446682 2.663387 -1.218400 0.000000 -59.876700
